<mxfile host="app.diagrams.net" modified="2024-03-10T17:49:31.182Z" agent="Mozilla/5.0 (Windows NT 10.0; Win64; x64) AppleWebKit/537.36 (KHTML, like Gecko) Chrome/121.0.0.0 Safari/537.36 OPR/107.0.0.0" etag="m8bpDMqbFGio2SwtzRVj" version="24.0.4" type="device">
  <diagram name="Сторінка-1" id="02LAUs_eIuv2vvq4vz-5">
    <mxGraphModel dx="2172" dy="1933" grid="1" gridSize="10" guides="1" tooltips="1" connect="1" arrows="1" fold="1" page="1" pageScale="1" pageWidth="827" pageHeight="1169" background="#ffffff" math="0" shadow="0">
      <root>
        <mxCell id="0" />
        <mxCell id="1" parent="0" />
        <mxCell id="xiUfMG9ZWScVy92p255J-62" value="Users" style="swimlane;fontStyle=0;childLayout=stackLayout;horizontal=1;startSize=30;horizontalStack=0;resizeParent=1;resizeParentMax=0;resizeLast=0;collapsible=1;marginBottom=0;whiteSpace=wrap;html=1;" parent="1" vertex="1">
          <mxGeometry x="90" y="-240" width="200" height="300" as="geometry" />
        </mxCell>
        <mxCell id="xiUfMG9ZWScVy92p255J-63" value="id" style="text;strokeColor=none;fillColor=none;align=left;verticalAlign=middle;spacingLeft=4;spacingRight=4;overflow=hidden;points=[[0,0.5],[1,0.5]];portConstraint=eastwest;rotatable=0;whiteSpace=wrap;html=1;" parent="xiUfMG9ZWScVy92p255J-62" vertex="1">
          <mxGeometry y="30" width="200" height="30" as="geometry" />
        </mxCell>
        <mxCell id="xiUfMG9ZWScVy92p255J-65" value="email" style="text;strokeColor=none;fillColor=none;align=left;verticalAlign=middle;spacingLeft=4;spacingRight=4;overflow=hidden;points=[[0,0.5],[1,0.5]];portConstraint=eastwest;rotatable=0;whiteSpace=wrap;html=1;" parent="xiUfMG9ZWScVy92p255J-62" vertex="1">
          <mxGeometry y="60" width="200" height="30" as="geometry" />
        </mxCell>
        <mxCell id="xiUfMG9ZWScVy92p255J-66" value="password" style="text;strokeColor=none;fillColor=none;align=left;verticalAlign=middle;spacingLeft=4;spacingRight=4;overflow=hidden;points=[[0,0.5],[1,0.5]];portConstraint=eastwest;rotatable=0;whiteSpace=wrap;html=1;" parent="xiUfMG9ZWScVy92p255J-62" vertex="1">
          <mxGeometry y="90" width="200" height="30" as="geometry" />
        </mxCell>
        <mxCell id="xiUfMG9ZWScVy92p255J-67" value="role" style="text;strokeColor=none;fillColor=none;align=left;verticalAlign=middle;spacingLeft=4;spacingRight=4;overflow=hidden;points=[[0,0.5],[1,0.5]];portConstraint=eastwest;rotatable=0;whiteSpace=wrap;html=1;" parent="xiUfMG9ZWScVy92p255J-62" vertex="1">
          <mxGeometry y="120" width="200" height="30" as="geometry" />
        </mxCell>
        <mxCell id="xiUfMG9ZWScVy92p255J-68" value="firstName" style="text;strokeColor=none;fillColor=none;align=left;verticalAlign=middle;spacingLeft=4;spacingRight=4;overflow=hidden;points=[[0,0.5],[1,0.5]];portConstraint=eastwest;rotatable=0;whiteSpace=wrap;html=1;" parent="xiUfMG9ZWScVy92p255J-62" vertex="1">
          <mxGeometry y="150" width="200" height="30" as="geometry" />
        </mxCell>
        <mxCell id="xiUfMG9ZWScVy92p255J-69" value="lastName" style="text;strokeColor=none;fillColor=none;align=left;verticalAlign=middle;spacingLeft=4;spacingRight=4;overflow=hidden;points=[[0,0.5],[1,0.5]];portConstraint=eastwest;rotatable=0;whiteSpace=wrap;html=1;" parent="xiUfMG9ZWScVy92p255J-62" vertex="1">
          <mxGeometry y="180" width="200" height="30" as="geometry" />
        </mxCell>
        <mxCell id="xiUfMG9ZWScVy92p255J-70" value="birthDate" style="text;strokeColor=none;fillColor=none;align=left;verticalAlign=middle;spacingLeft=4;spacingRight=4;overflow=hidden;points=[[0,0.5],[1,0.5]];portConstraint=eastwest;rotatable=0;whiteSpace=wrap;html=1;" parent="xiUfMG9ZWScVy92p255J-62" vertex="1">
          <mxGeometry y="210" width="200" height="30" as="geometry" />
        </mxCell>
        <mxCell id="xiUfMG9ZWScVy92p255J-71" value="phoneNumber" style="text;strokeColor=none;fillColor=none;align=left;verticalAlign=middle;spacingLeft=4;spacingRight=4;overflow=hidden;points=[[0,0.5],[1,0.5]];portConstraint=eastwest;rotatable=0;whiteSpace=wrap;html=1;" parent="xiUfMG9ZWScVy92p255J-62" vertex="1">
          <mxGeometry y="240" width="200" height="30" as="geometry" />
        </mxCell>
        <mxCell id="xiUfMG9ZWScVy92p255J-72" value="last_login" style="text;strokeColor=none;fillColor=none;align=left;verticalAlign=middle;spacingLeft=4;spacingRight=4;overflow=hidden;points=[[0,0.5],[1,0.5]];portConstraint=eastwest;rotatable=0;whiteSpace=wrap;html=1;" parent="xiUfMG9ZWScVy92p255J-62" vertex="1">
          <mxGeometry y="270" width="200" height="30" as="geometry" />
        </mxCell>
        <mxCell id="xiUfMG9ZWScVy92p255J-75" value="Basket_lists" style="swimlane;fontStyle=0;childLayout=stackLayout;horizontal=1;startSize=30;horizontalStack=0;resizeParent=1;resizeParentMax=0;resizeLast=0;collapsible=1;marginBottom=0;whiteSpace=wrap;html=1;" parent="1" vertex="1">
          <mxGeometry x="-260" y="-110" width="140" height="90" as="geometry" />
        </mxCell>
        <mxCell id="xiUfMG9ZWScVy92p255J-77" value="id" style="text;strokeColor=none;fillColor=none;align=left;verticalAlign=middle;spacingLeft=4;spacingRight=4;overflow=hidden;points=[[0,0.5],[1,0.5]];portConstraint=eastwest;rotatable=0;whiteSpace=wrap;html=1;" parent="xiUfMG9ZWScVy92p255J-75" vertex="1">
          <mxGeometry y="30" width="140" height="30" as="geometry" />
        </mxCell>
        <mxCell id="xiUfMG9ZWScVy92p255J-78" value="user_id" style="text;strokeColor=none;fillColor=none;align=left;verticalAlign=middle;spacingLeft=4;spacingRight=4;overflow=hidden;points=[[0,0.5],[1,0.5]];portConstraint=eastwest;rotatable=0;whiteSpace=wrap;html=1;" parent="xiUfMG9ZWScVy92p255J-75" vertex="1">
          <mxGeometry y="60" width="140" height="30" as="geometry" />
        </mxCell>
        <mxCell id="xiUfMG9ZWScVy92p255J-79" value="Wish_lists" style="swimlane;fontStyle=0;childLayout=stackLayout;horizontal=1;startSize=30;horizontalStack=0;resizeParent=1;resizeParentMax=0;resizeLast=0;collapsible=1;marginBottom=0;whiteSpace=wrap;html=1;" parent="1" vertex="1">
          <mxGeometry x="-260" y="10" width="140" height="90" as="geometry" />
        </mxCell>
        <mxCell id="xiUfMG9ZWScVy92p255J-80" value="id" style="text;strokeColor=none;fillColor=none;align=left;verticalAlign=middle;spacingLeft=4;spacingRight=4;overflow=hidden;points=[[0,0.5],[1,0.5]];portConstraint=eastwest;rotatable=0;whiteSpace=wrap;html=1;" parent="xiUfMG9ZWScVy92p255J-79" vertex="1">
          <mxGeometry y="30" width="140" height="30" as="geometry" />
        </mxCell>
        <mxCell id="xiUfMG9ZWScVy92p255J-81" value="user_id" style="text;strokeColor=none;fillColor=none;align=left;verticalAlign=middle;spacingLeft=4;spacingRight=4;overflow=hidden;points=[[0,0.5],[1,0.5]];portConstraint=eastwest;rotatable=0;whiteSpace=wrap;html=1;" parent="xiUfMG9ZWScVy92p255J-79" vertex="1">
          <mxGeometry y="60" width="140" height="30" as="geometry" />
        </mxCell>
        <mxCell id="xiUfMG9ZWScVy92p255J-87" value="Products" style="swimlane;fontStyle=0;childLayout=stackLayout;horizontal=1;startSize=30;horizontalStack=0;resizeParent=1;resizeParentMax=0;resizeLast=0;collapsible=1;marginBottom=0;whiteSpace=wrap;html=1;" parent="1" vertex="1">
          <mxGeometry x="150" y="-850" width="140" height="330" as="geometry" />
        </mxCell>
        <mxCell id="xiUfMG9ZWScVy92p255J-89" value="id" style="text;strokeColor=none;fillColor=none;align=left;verticalAlign=middle;spacingLeft=4;spacingRight=4;overflow=hidden;points=[[0,0.5],[1,0.5]];portConstraint=eastwest;rotatable=0;whiteSpace=wrap;html=1;" parent="xiUfMG9ZWScVy92p255J-87" vertex="1">
          <mxGeometry y="30" width="140" height="30" as="geometry" />
        </mxCell>
        <mxCell id="xiUfMG9ZWScVy92p255J-90" value="category_id" style="text;strokeColor=none;fillColor=none;align=left;verticalAlign=middle;spacingLeft=4;spacingRight=4;overflow=hidden;points=[[0,0.5],[1,0.5]];portConstraint=eastwest;rotatable=0;whiteSpace=wrap;html=1;" parent="xiUfMG9ZWScVy92p255J-87" vertex="1">
          <mxGeometry y="60" width="140" height="30" as="geometry" />
        </mxCell>
        <mxCell id="xiUfMG9ZWScVy92p255J-125" value="type_id" style="text;strokeColor=none;fillColor=none;align=left;verticalAlign=middle;spacingLeft=4;spacingRight=4;overflow=hidden;points=[[0,0.5],[1,0.5]];portConstraint=eastwest;rotatable=0;whiteSpace=wrap;html=1;" parent="xiUfMG9ZWScVy92p255J-87" vertex="1">
          <mxGeometry y="90" width="140" height="30" as="geometry" />
        </mxCell>
        <mxCell id="xiUfMG9ZWScVy92p255J-126" value="brand_id" style="text;strokeColor=none;fillColor=none;align=left;verticalAlign=middle;spacingLeft=4;spacingRight=4;overflow=hidden;points=[[0,0.5],[1,0.5]];portConstraint=eastwest;rotatable=0;whiteSpace=wrap;html=1;" parent="xiUfMG9ZWScVy92p255J-87" vertex="1">
          <mxGeometry y="120" width="140" height="30" as="geometry" />
        </mxCell>
        <mxCell id="xiUfMG9ZWScVy92p255J-127" value="title" style="text;strokeColor=none;fillColor=none;align=left;verticalAlign=middle;spacingLeft=4;spacingRight=4;overflow=hidden;points=[[0,0.5],[1,0.5]];portConstraint=eastwest;rotatable=0;whiteSpace=wrap;html=1;" parent="xiUfMG9ZWScVy92p255J-87" vertex="1">
          <mxGeometry y="150" width="140" height="30" as="geometry" />
        </mxCell>
        <mxCell id="xiUfMG9ZWScVy92p255J-128" value="price" style="text;strokeColor=none;fillColor=none;align=left;verticalAlign=middle;spacingLeft=4;spacingRight=4;overflow=hidden;points=[[0,0.5],[1,0.5]];portConstraint=eastwest;rotatable=0;whiteSpace=wrap;html=1;" parent="xiUfMG9ZWScVy92p255J-87" vertex="1">
          <mxGeometry y="180" width="140" height="30" as="geometry" />
        </mxCell>
        <mxCell id="xiUfMG9ZWScVy92p255J-147" value="discount_id" style="text;strokeColor=none;fillColor=none;align=left;verticalAlign=middle;spacingLeft=4;spacingRight=4;overflow=hidden;points=[[0,0.5],[1,0.5]];portConstraint=eastwest;rotatable=0;whiteSpace=wrap;html=1;" parent="xiUfMG9ZWScVy92p255J-87" vertex="1">
          <mxGeometry y="210" width="140" height="30" as="geometry" />
        </mxCell>
        <mxCell id="xiUfMG9ZWScVy92p255J-148" value="rating" style="text;strokeColor=none;fillColor=none;align=left;verticalAlign=middle;spacingLeft=4;spacingRight=4;overflow=hidden;points=[[0,0.5],[1,0.5]];portConstraint=eastwest;rotatable=0;whiteSpace=wrap;html=1;" parent="xiUfMG9ZWScVy92p255J-87" vertex="1">
          <mxGeometry y="240" width="140" height="30" as="geometry" />
        </mxCell>
        <mxCell id="8OaxWqH39NRTjp0TWXGz-43" value="reviews" style="text;strokeColor=none;fillColor=none;align=left;verticalAlign=middle;spacingLeft=4;spacingRight=4;overflow=hidden;points=[[0,0.5],[1,0.5]];portConstraint=eastwest;rotatable=0;whiteSpace=wrap;html=1;" vertex="1" parent="xiUfMG9ZWScVy92p255J-87">
          <mxGeometry y="270" width="140" height="30" as="geometry" />
        </mxCell>
        <mxCell id="xiUfMG9ZWScVy92p255J-160" value="img" style="text;strokeColor=none;fillColor=none;align=left;verticalAlign=middle;spacingLeft=4;spacingRight=4;overflow=hidden;points=[[0,0.5],[1,0.5]];portConstraint=eastwest;rotatable=0;whiteSpace=wrap;html=1;" parent="xiUfMG9ZWScVy92p255J-87" vertex="1">
          <mxGeometry y="300" width="140" height="30" as="geometry" />
        </mxCell>
        <mxCell id="xiUfMG9ZWScVy92p255J-83" value="Orders" style="swimlane;fontStyle=0;childLayout=stackLayout;horizontal=1;startSize=30;horizontalStack=0;resizeParent=1;resizeParentMax=0;resizeLast=0;collapsible=1;marginBottom=0;whiteSpace=wrap;html=1;" parent="1" vertex="1">
          <mxGeometry x="490" y="110" width="140" height="210" as="geometry" />
        </mxCell>
        <mxCell id="xiUfMG9ZWScVy92p255J-84" value="id" style="text;strokeColor=none;fillColor=none;align=left;verticalAlign=middle;spacingLeft=4;spacingRight=4;overflow=hidden;points=[[0,0.5],[1,0.5]];portConstraint=eastwest;rotatable=0;whiteSpace=wrap;html=1;" parent="xiUfMG9ZWScVy92p255J-83" vertex="1">
          <mxGeometry y="30" width="140" height="30" as="geometry" />
        </mxCell>
        <mxCell id="xiUfMG9ZWScVy92p255J-85" value="user_id" style="text;strokeColor=none;fillColor=none;align=left;verticalAlign=middle;spacingLeft=4;spacingRight=4;overflow=hidden;points=[[0,0.5],[1,0.5]];portConstraint=eastwest;rotatable=0;whiteSpace=wrap;html=1;" parent="xiUfMG9ZWScVy92p255J-83" vertex="1">
          <mxGeometry y="60" width="140" height="30" as="geometry" />
        </mxCell>
        <mxCell id="xiUfMG9ZWScVy92p255J-86" value="product_id" style="text;strokeColor=none;fillColor=none;align=left;verticalAlign=middle;spacingLeft=4;spacingRight=4;overflow=hidden;points=[[0,0.5],[1,0.5]];portConstraint=eastwest;rotatable=0;whiteSpace=wrap;html=1;" parent="xiUfMG9ZWScVy92p255J-83" vertex="1">
          <mxGeometry y="90" width="140" height="30" as="geometry" />
        </mxCell>
        <mxCell id="8OaxWqH39NRTjp0TWXGz-50" value="pay_method" style="text;strokeColor=none;fillColor=none;align=left;verticalAlign=middle;spacingLeft=4;spacingRight=4;overflow=hidden;points=[[0,0.5],[1,0.5]];portConstraint=eastwest;rotatable=0;whiteSpace=wrap;html=1;" vertex="1" parent="xiUfMG9ZWScVy92p255J-83">
          <mxGeometry y="120" width="140" height="30" as="geometry" />
        </mxCell>
        <mxCell id="8OaxWqH39NRTjp0TWXGz-51" value="place_of_delivery" style="text;strokeColor=none;fillColor=none;align=left;verticalAlign=middle;spacingLeft=4;spacingRight=4;overflow=hidden;points=[[0,0.5],[1,0.5]];portConstraint=eastwest;rotatable=0;whiteSpace=wrap;html=1;" vertex="1" parent="xiUfMG9ZWScVy92p255J-83">
          <mxGeometry y="150" width="140" height="30" as="geometry" />
        </mxCell>
        <mxCell id="8OaxWqH39NRTjp0TWXGz-52" value="status" style="text;strokeColor=none;fillColor=none;align=left;verticalAlign=middle;spacingLeft=4;spacingRight=4;overflow=hidden;points=[[0,0.5],[1,0.5]];portConstraint=eastwest;rotatable=0;whiteSpace=wrap;html=1;" vertex="1" parent="xiUfMG9ZWScVy92p255J-83">
          <mxGeometry y="180" width="140" height="30" as="geometry" />
        </mxCell>
        <mxCell id="xiUfMG9ZWScVy92p255J-91" value="Images" style="swimlane;fontStyle=0;childLayout=stackLayout;horizontal=1;startSize=30;horizontalStack=0;resizeParent=1;resizeParentMax=0;resizeLast=0;collapsible=1;marginBottom=0;whiteSpace=wrap;html=1;" parent="1" vertex="1">
          <mxGeometry x="-483" y="-680" width="140" height="90" as="geometry" />
        </mxCell>
        <mxCell id="xiUfMG9ZWScVy92p255J-92" value="id" style="text;strokeColor=none;fillColor=none;align=left;verticalAlign=middle;spacingLeft=4;spacingRight=4;overflow=hidden;points=[[0,0.5],[1,0.5]];portConstraint=eastwest;rotatable=0;whiteSpace=wrap;html=1;" parent="xiUfMG9ZWScVy92p255J-91" vertex="1">
          <mxGeometry y="30" width="140" height="30" as="geometry" />
        </mxCell>
        <mxCell id="xiUfMG9ZWScVy92p255J-93" value="src" style="text;strokeColor=none;fillColor=none;align=left;verticalAlign=middle;spacingLeft=4;spacingRight=4;overflow=hidden;points=[[0,0.5],[1,0.5]];portConstraint=eastwest;rotatable=0;whiteSpace=wrap;html=1;" parent="xiUfMG9ZWScVy92p255J-91" vertex="1">
          <mxGeometry y="60" width="140" height="30" as="geometry" />
        </mxCell>
        <mxCell id="xiUfMG9ZWScVy92p255J-95" value="Categories" style="swimlane;fontStyle=0;childLayout=stackLayout;horizontal=1;startSize=30;horizontalStack=0;resizeParent=1;resizeParentMax=0;resizeLast=0;collapsible=1;marginBottom=0;whiteSpace=wrap;html=1;" parent="1" vertex="1">
          <mxGeometry x="-210" y="-520" width="140" height="90" as="geometry" />
        </mxCell>
        <mxCell id="xiUfMG9ZWScVy92p255J-96" value="id" style="text;strokeColor=none;fillColor=none;align=left;verticalAlign=middle;spacingLeft=4;spacingRight=4;overflow=hidden;points=[[0,0.5],[1,0.5]];portConstraint=eastwest;rotatable=0;whiteSpace=wrap;html=1;" parent="xiUfMG9ZWScVy92p255J-95" vertex="1">
          <mxGeometry y="30" width="140" height="30" as="geometry" />
        </mxCell>
        <mxCell id="xiUfMG9ZWScVy92p255J-97" value="title" style="text;strokeColor=none;fillColor=none;align=left;verticalAlign=middle;spacingLeft=4;spacingRight=4;overflow=hidden;points=[[0,0.5],[1,0.5]];portConstraint=eastwest;rotatable=0;whiteSpace=wrap;html=1;" parent="xiUfMG9ZWScVy92p255J-95" vertex="1">
          <mxGeometry y="60" width="140" height="30" as="geometry" />
        </mxCell>
        <mxCell id="xiUfMG9ZWScVy92p255J-99" value="Brends" style="swimlane;fontStyle=0;childLayout=stackLayout;horizontal=1;startSize=30;horizontalStack=0;resizeParent=1;resizeParentMax=0;resizeLast=0;collapsible=1;marginBottom=0;whiteSpace=wrap;html=1;" parent="1" vertex="1">
          <mxGeometry x="-210" y="-680" width="140" height="90" as="geometry" />
        </mxCell>
        <mxCell id="xiUfMG9ZWScVy92p255J-100" value="id" style="text;strokeColor=none;fillColor=none;align=left;verticalAlign=middle;spacingLeft=4;spacingRight=4;overflow=hidden;points=[[0,0.5],[1,0.5]];portConstraint=eastwest;rotatable=0;whiteSpace=wrap;html=1;" parent="xiUfMG9ZWScVy92p255J-99" vertex="1">
          <mxGeometry y="30" width="140" height="30" as="geometry" />
        </mxCell>
        <mxCell id="xiUfMG9ZWScVy92p255J-101" value="title" style="text;strokeColor=none;fillColor=none;align=left;verticalAlign=middle;spacingLeft=4;spacingRight=4;overflow=hidden;points=[[0,0.5],[1,0.5]];portConstraint=eastwest;rotatable=0;whiteSpace=wrap;html=1;" parent="xiUfMG9ZWScVy92p255J-99" vertex="1">
          <mxGeometry y="60" width="140" height="30" as="geometry" />
        </mxCell>
        <mxCell id="xiUfMG9ZWScVy92p255J-103" value="Product_Infos" style="swimlane;fontStyle=0;childLayout=stackLayout;horizontal=1;startSize=30;horizontalStack=0;resizeParent=1;resizeParentMax=0;resizeLast=0;collapsible=1;marginBottom=0;whiteSpace=wrap;html=1;" parent="1" vertex="1">
          <mxGeometry x="390" y="-880" width="140" height="150" as="geometry" />
        </mxCell>
        <mxCell id="xiUfMG9ZWScVy92p255J-104" value="id" style="text;strokeColor=none;fillColor=none;align=left;verticalAlign=middle;spacingLeft=4;spacingRight=4;overflow=hidden;points=[[0,0.5],[1,0.5]];portConstraint=eastwest;rotatable=0;whiteSpace=wrap;html=1;" parent="xiUfMG9ZWScVy92p255J-103" vertex="1">
          <mxGeometry y="30" width="140" height="30" as="geometry" />
        </mxCell>
        <mxCell id="xiUfMG9ZWScVy92p255J-105" value="product_id" style="text;strokeColor=none;fillColor=none;align=left;verticalAlign=middle;spacingLeft=4;spacingRight=4;overflow=hidden;points=[[0,0.5],[1,0.5]];portConstraint=eastwest;rotatable=0;whiteSpace=wrap;html=1;" parent="xiUfMG9ZWScVy92p255J-103" vertex="1">
          <mxGeometry y="60" width="140" height="30" as="geometry" />
        </mxCell>
        <mxCell id="xiUfMG9ZWScVy92p255J-106" value="title" style="text;strokeColor=none;fillColor=none;align=left;verticalAlign=middle;spacingLeft=4;spacingRight=4;overflow=hidden;points=[[0,0.5],[1,0.5]];portConstraint=eastwest;rotatable=0;whiteSpace=wrap;html=1;" parent="xiUfMG9ZWScVy92p255J-103" vertex="1">
          <mxGeometry y="90" width="140" height="30" as="geometry" />
        </mxCell>
        <mxCell id="xiUfMG9ZWScVy92p255J-151" value="description" style="text;strokeColor=none;fillColor=none;align=left;verticalAlign=middle;spacingLeft=4;spacingRight=4;overflow=hidden;points=[[0,0.5],[1,0.5]];portConstraint=eastwest;rotatable=0;whiteSpace=wrap;html=1;" parent="xiUfMG9ZWScVy92p255J-103" vertex="1">
          <mxGeometry y="120" width="140" height="30" as="geometry" />
        </mxCell>
        <mxCell id="xiUfMG9ZWScVy92p255J-107" value="Types" style="swimlane;fontStyle=0;childLayout=stackLayout;horizontal=1;startSize=30;horizontalStack=0;resizeParent=1;resizeParentMax=0;resizeLast=0;collapsible=1;marginBottom=0;whiteSpace=wrap;html=1;" parent="1" vertex="1">
          <mxGeometry x="-210" y="-870" width="140" height="90" as="geometry" />
        </mxCell>
        <mxCell id="xiUfMG9ZWScVy92p255J-108" value="id" style="text;strokeColor=none;fillColor=none;align=left;verticalAlign=middle;spacingLeft=4;spacingRight=4;overflow=hidden;points=[[0,0.5],[1,0.5]];portConstraint=eastwest;rotatable=0;whiteSpace=wrap;html=1;" parent="xiUfMG9ZWScVy92p255J-107" vertex="1">
          <mxGeometry y="30" width="140" height="30" as="geometry" />
        </mxCell>
        <mxCell id="xiUfMG9ZWScVy92p255J-109" value="title" style="text;strokeColor=none;fillColor=none;align=left;verticalAlign=middle;spacingLeft=4;spacingRight=4;overflow=hidden;points=[[0,0.5],[1,0.5]];portConstraint=eastwest;rotatable=0;whiteSpace=wrap;html=1;" parent="xiUfMG9ZWScVy92p255J-107" vertex="1">
          <mxGeometry y="60" width="140" height="30" as="geometry" />
        </mxCell>
        <mxCell id="xiUfMG9ZWScVy92p255J-111" value="Reviews" style="swimlane;fontStyle=0;childLayout=stackLayout;horizontal=1;startSize=30;horizontalStack=0;resizeParent=1;resizeParentMax=0;resizeLast=0;collapsible=1;marginBottom=0;whiteSpace=wrap;html=1;" parent="1" vertex="1">
          <mxGeometry x="960" y="-600" width="140" height="180" as="geometry" />
        </mxCell>
        <mxCell id="xiUfMG9ZWScVy92p255J-112" value="id" style="text;strokeColor=none;fillColor=none;align=left;verticalAlign=middle;spacingLeft=4;spacingRight=4;overflow=hidden;points=[[0,0.5],[1,0.5]];portConstraint=eastwest;rotatable=0;whiteSpace=wrap;html=1;" parent="xiUfMG9ZWScVy92p255J-111" vertex="1">
          <mxGeometry y="30" width="140" height="30" as="geometry" />
        </mxCell>
        <mxCell id="xiUfMG9ZWScVy92p255J-113" value="user_id" style="text;strokeColor=none;fillColor=none;align=left;verticalAlign=middle;spacingLeft=4;spacingRight=4;overflow=hidden;points=[[0,0.5],[1,0.5]];portConstraint=eastwest;rotatable=0;whiteSpace=wrap;html=1;" parent="xiUfMG9ZWScVy92p255J-111" vertex="1">
          <mxGeometry y="60" width="140" height="30" as="geometry" />
        </mxCell>
        <mxCell id="xiUfMG9ZWScVy92p255J-114" value="product_id" style="text;strokeColor=none;fillColor=none;align=left;verticalAlign=middle;spacingLeft=4;spacingRight=4;overflow=hidden;points=[[0,0.5],[1,0.5]];portConstraint=eastwest;rotatable=0;whiteSpace=wrap;html=1;" parent="xiUfMG9ZWScVy92p255J-111" vertex="1">
          <mxGeometry y="90" width="140" height="30" as="geometry" />
        </mxCell>
        <mxCell id="8OaxWqH39NRTjp0TWXGz-49" value="imgs" style="text;strokeColor=none;fillColor=none;align=left;verticalAlign=middle;spacingLeft=4;spacingRight=4;overflow=hidden;points=[[0,0.5],[1,0.5]];portConstraint=eastwest;rotatable=0;whiteSpace=wrap;html=1;" vertex="1" parent="xiUfMG9ZWScVy92p255J-111">
          <mxGeometry y="120" width="140" height="30" as="geometry" />
        </mxCell>
        <mxCell id="8OaxWqH39NRTjp0TWXGz-60" value="description" style="text;strokeColor=none;fillColor=none;align=left;verticalAlign=middle;spacingLeft=4;spacingRight=4;overflow=hidden;points=[[0,0.5],[1,0.5]];portConstraint=eastwest;rotatable=0;whiteSpace=wrap;html=1;" vertex="1" parent="xiUfMG9ZWScVy92p255J-111">
          <mxGeometry y="150" width="140" height="30" as="geometry" />
        </mxCell>
        <mxCell id="xiUfMG9ZWScVy92p255J-115" value="Discount_cards" style="swimlane;fontStyle=0;childLayout=stackLayout;horizontal=1;startSize=30;horizontalStack=0;resizeParent=1;resizeParentMax=0;resizeLast=0;collapsible=1;marginBottom=0;whiteSpace=wrap;html=1;" parent="1" vertex="1">
          <mxGeometry x="-180" y="-390" width="140" height="180" as="geometry" />
        </mxCell>
        <mxCell id="xiUfMG9ZWScVy92p255J-116" value="user_id" style="text;strokeColor=none;fillColor=none;align=left;verticalAlign=middle;spacingLeft=4;spacingRight=4;overflow=hidden;points=[[0,0.5],[1,0.5]];portConstraint=eastwest;rotatable=0;whiteSpace=wrap;html=1;" parent="xiUfMG9ZWScVy92p255J-115" vertex="1">
          <mxGeometry y="30" width="140" height="30" as="geometry" />
        </mxCell>
        <mxCell id="xiUfMG9ZWScVy92p255J-117" value="code" style="text;strokeColor=none;fillColor=none;align=left;verticalAlign=middle;spacingLeft=4;spacingRight=4;overflow=hidden;points=[[0,0.5],[1,0.5]];portConstraint=eastwest;rotatable=0;whiteSpace=wrap;html=1;" parent="xiUfMG9ZWScVy92p255J-115" vertex="1">
          <mxGeometry y="60" width="140" height="30" as="geometry" />
        </mxCell>
        <mxCell id="xiUfMG9ZWScVy92p255J-118" value="percent" style="text;strokeColor=none;fillColor=none;align=left;verticalAlign=middle;spacingLeft=4;spacingRight=4;overflow=hidden;points=[[0,0.5],[1,0.5]];portConstraint=eastwest;rotatable=0;whiteSpace=wrap;html=1;" parent="xiUfMG9ZWScVy92p255J-115" vertex="1">
          <mxGeometry y="90" width="140" height="30" as="geometry" />
        </mxCell>
        <mxCell id="xiUfMG9ZWScVy92p255J-119" value="data_start" style="text;strokeColor=none;fillColor=none;align=left;verticalAlign=middle;spacingLeft=4;spacingRight=4;overflow=hidden;points=[[0,0.5],[1,0.5]];portConstraint=eastwest;rotatable=0;whiteSpace=wrap;html=1;" parent="xiUfMG9ZWScVy92p255J-115" vertex="1">
          <mxGeometry y="120" width="140" height="30" as="geometry" />
        </mxCell>
        <mxCell id="xiUfMG9ZWScVy92p255J-120" value="time_life" style="text;strokeColor=none;fillColor=none;align=left;verticalAlign=middle;spacingLeft=4;spacingRight=4;overflow=hidden;points=[[0,0.5],[1,0.5]];portConstraint=eastwest;rotatable=0;whiteSpace=wrap;html=1;" parent="xiUfMG9ZWScVy92p255J-115" vertex="1">
          <mxGeometry y="150" width="140" height="30" as="geometry" />
        </mxCell>
        <mxCell id="xiUfMG9ZWScVy92p255J-124" value="" style="edgeStyle=entityRelationEdgeStyle;fontSize=12;html=1;endArrow=ERoneToMany;rounded=0;exitX=0;exitY=0.5;exitDx=0;exitDy=0;entryX=1;entryY=0.5;entryDx=0;entryDy=0;" parent="1" source="xiUfMG9ZWScVy92p255J-63" target="xiUfMG9ZWScVy92p255J-116" edge="1">
          <mxGeometry width="100" height="100" relative="1" as="geometry">
            <mxPoint x="-110" y="230" as="sourcePoint" />
            <mxPoint x="70" y="230" as="targetPoint" />
          </mxGeometry>
        </mxCell>
        <mxCell id="xiUfMG9ZWScVy92p255J-143" value="Rating" style="swimlane;fontStyle=0;childLayout=stackLayout;horizontal=1;startSize=30;horizontalStack=0;resizeParent=1;resizeParentMax=0;resizeLast=0;collapsible=1;marginBottom=0;whiteSpace=wrap;html=1;" parent="1" vertex="1">
          <mxGeometry x="960" y="-350" width="140" height="150" as="geometry" />
        </mxCell>
        <mxCell id="xiUfMG9ZWScVy92p255J-144" value="id" style="text;strokeColor=none;fillColor=none;align=left;verticalAlign=middle;spacingLeft=4;spacingRight=4;overflow=hidden;points=[[0,0.5],[1,0.5]];portConstraint=eastwest;rotatable=0;whiteSpace=wrap;html=1;" parent="xiUfMG9ZWScVy92p255J-143" vertex="1">
          <mxGeometry y="30" width="140" height="30" as="geometry" />
        </mxCell>
        <mxCell id="xiUfMG9ZWScVy92p255J-145" value="user_id" style="text;strokeColor=none;fillColor=none;align=left;verticalAlign=middle;spacingLeft=4;spacingRight=4;overflow=hidden;points=[[0,0.5],[1,0.5]];portConstraint=eastwest;rotatable=0;whiteSpace=wrap;html=1;" parent="xiUfMG9ZWScVy92p255J-143" vertex="1">
          <mxGeometry y="60" width="140" height="30" as="geometry" />
        </mxCell>
        <mxCell id="xiUfMG9ZWScVy92p255J-146" value="product_id" style="text;strokeColor=none;fillColor=none;align=left;verticalAlign=middle;spacingLeft=4;spacingRight=4;overflow=hidden;points=[[0,0.5],[1,0.5]];portConstraint=eastwest;rotatable=0;whiteSpace=wrap;html=1;" parent="xiUfMG9ZWScVy92p255J-143" vertex="1">
          <mxGeometry y="90" width="140" height="30" as="geometry" />
        </mxCell>
        <mxCell id="8OaxWqH39NRTjp0TWXGz-19" value="rate" style="text;strokeColor=none;fillColor=none;align=left;verticalAlign=middle;spacingLeft=4;spacingRight=4;overflow=hidden;points=[[0,0.5],[1,0.5]];portConstraint=eastwest;rotatable=0;whiteSpace=wrap;html=1;" vertex="1" parent="xiUfMG9ZWScVy92p255J-143">
          <mxGeometry y="120" width="140" height="30" as="geometry" />
        </mxCell>
        <mxCell id="xiUfMG9ZWScVy92p255J-152" value="" style="edgeStyle=entityRelationEdgeStyle;fontSize=12;html=1;endArrow=ERoneToMany;rounded=0;entryX=0;entryY=0.5;entryDx=0;entryDy=0;exitX=1;exitY=0.5;exitDx=0;exitDy=0;" parent="1" source="xiUfMG9ZWScVy92p255J-89" target="xiUfMG9ZWScVy92p255J-105" edge="1">
          <mxGeometry width="100" height="100" relative="1" as="geometry">
            <mxPoint x="330" y="-775" as="sourcePoint" />
            <mxPoint x="330" y="-660" as="targetPoint" />
          </mxGeometry>
        </mxCell>
        <mxCell id="xiUfMG9ZWScVy92p255J-154" value="" style="edgeStyle=entityRelationEdgeStyle;fontSize=12;html=1;endArrow=ERoneToMany;rounded=0;exitX=1.016;exitY=0.12;exitDx=0;exitDy=0;entryX=0;entryY=0.5;entryDx=0;entryDy=0;exitPerimeter=0;" parent="1" source="xiUfMG9ZWScVy92p255J-107" target="xiUfMG9ZWScVy92p255J-125" edge="1">
          <mxGeometry width="100" height="100" relative="1" as="geometry">
            <mxPoint x="230" y="-560" as="sourcePoint" />
            <mxPoint x="330" y="-660" as="targetPoint" />
          </mxGeometry>
        </mxCell>
        <mxCell id="xiUfMG9ZWScVy92p255J-155" value="" style="edgeStyle=entityRelationEdgeStyle;fontSize=12;html=1;endArrow=ERoneToMany;rounded=0;exitX=1.011;exitY=0.107;exitDx=0;exitDy=0;exitPerimeter=0;entryX=0;entryY=0.5;entryDx=0;entryDy=0;" parent="1" source="xiUfMG9ZWScVy92p255J-99" target="xiUfMG9ZWScVy92p255J-126" edge="1">
          <mxGeometry width="100" height="100" relative="1" as="geometry">
            <mxPoint x="230" y="-560" as="sourcePoint" />
            <mxPoint x="330" y="-660" as="targetPoint" />
          </mxGeometry>
        </mxCell>
        <mxCell id="xiUfMG9ZWScVy92p255J-157" value="" style="edgeStyle=entityRelationEdgeStyle;fontSize=12;html=1;endArrow=ERmany;startArrow=ERmany;rounded=0;" parent="1" source="xiUfMG9ZWScVy92p255J-99" target="xiUfMG9ZWScVy92p255J-107" edge="1">
          <mxGeometry width="100" height="100" relative="1" as="geometry">
            <mxPoint x="230" y="-560" as="sourcePoint" />
            <mxPoint x="330" y="-660" as="targetPoint" />
          </mxGeometry>
        </mxCell>
        <mxCell id="xiUfMG9ZWScVy92p255J-158" value="" style="edgeStyle=entityRelationEdgeStyle;fontSize=12;html=1;endArrow=ERoneToMany;rounded=0;exitX=0.994;exitY=0.156;exitDx=0;exitDy=0;exitPerimeter=0;entryX=0;entryY=0.5;entryDx=0;entryDy=0;" parent="1" source="xiUfMG9ZWScVy92p255J-95" target="xiUfMG9ZWScVy92p255J-90" edge="1">
          <mxGeometry width="100" height="100" relative="1" as="geometry">
            <mxPoint x="230" y="-560" as="sourcePoint" />
            <mxPoint x="330" y="-660" as="targetPoint" />
          </mxGeometry>
        </mxCell>
        <mxCell id="8OaxWqH39NRTjp0TWXGz-1" value="Discounts" style="swimlane;fontStyle=0;childLayout=stackLayout;horizontal=1;startSize=30;horizontalStack=0;resizeParent=1;resizeParentMax=0;resizeLast=0;collapsible=1;marginBottom=0;whiteSpace=wrap;html=1;" vertex="1" parent="1">
          <mxGeometry x="-400" y="-390" width="140" height="150" as="geometry" />
        </mxCell>
        <mxCell id="8OaxWqH39NRTjp0TWXGz-2" value="id" style="text;strokeColor=none;fillColor=none;align=left;verticalAlign=middle;spacingLeft=4;spacingRight=4;overflow=hidden;points=[[0,0.5],[1,0.5]];portConstraint=eastwest;rotatable=0;whiteSpace=wrap;html=1;" vertex="1" parent="8OaxWqH39NRTjp0TWXGz-1">
          <mxGeometry y="30" width="140" height="30" as="geometry" />
        </mxCell>
        <mxCell id="8OaxWqH39NRTjp0TWXGz-3" value="percent" style="text;strokeColor=none;fillColor=none;align=left;verticalAlign=middle;spacingLeft=4;spacingRight=4;overflow=hidden;points=[[0,0.5],[1,0.5]];portConstraint=eastwest;rotatable=0;whiteSpace=wrap;html=1;" vertex="1" parent="8OaxWqH39NRTjp0TWXGz-1">
          <mxGeometry y="60" width="140" height="30" as="geometry" />
        </mxCell>
        <mxCell id="8OaxWqH39NRTjp0TWXGz-4" value="data_start" style="text;strokeColor=none;fillColor=none;align=left;verticalAlign=middle;spacingLeft=4;spacingRight=4;overflow=hidden;points=[[0,0.5],[1,0.5]];portConstraint=eastwest;rotatable=0;whiteSpace=wrap;html=1;" vertex="1" parent="8OaxWqH39NRTjp0TWXGz-1">
          <mxGeometry y="90" width="140" height="30" as="geometry" />
        </mxCell>
        <mxCell id="8OaxWqH39NRTjp0TWXGz-6" value="data_end" style="text;strokeColor=none;fillColor=none;align=left;verticalAlign=middle;spacingLeft=4;spacingRight=4;overflow=hidden;points=[[0,0.5],[1,0.5]];portConstraint=eastwest;rotatable=0;whiteSpace=wrap;html=1;" vertex="1" parent="8OaxWqH39NRTjp0TWXGz-1">
          <mxGeometry y="120" width="140" height="30" as="geometry" />
        </mxCell>
        <mxCell id="8OaxWqH39NRTjp0TWXGz-7" value="Basket_products" style="swimlane;fontStyle=0;childLayout=stackLayout;horizontal=1;startSize=26;horizontalStack=0;resizeParent=1;resizeParentMax=0;resizeLast=0;collapsible=1;marginBottom=0;align=center;fontSize=14;" vertex="1" parent="1">
          <mxGeometry x="-493" y="-123" width="160" height="116" as="geometry" />
        </mxCell>
        <mxCell id="8OaxWqH39NRTjp0TWXGz-8" value="id" style="text;strokeColor=none;fillColor=none;spacingLeft=4;spacingRight=4;overflow=hidden;rotatable=0;points=[[0,0.5],[1,0.5]];portConstraint=eastwest;fontSize=12;whiteSpace=wrap;html=1;" vertex="1" parent="8OaxWqH39NRTjp0TWXGz-7">
          <mxGeometry y="26" width="160" height="30" as="geometry" />
        </mxCell>
        <mxCell id="8OaxWqH39NRTjp0TWXGz-9" value="product_id" style="text;strokeColor=none;fillColor=none;spacingLeft=4;spacingRight=4;overflow=hidden;rotatable=0;points=[[0,0.5],[1,0.5]];portConstraint=eastwest;fontSize=12;whiteSpace=wrap;html=1;" vertex="1" parent="8OaxWqH39NRTjp0TWXGz-7">
          <mxGeometry y="56" width="160" height="30" as="geometry" />
        </mxCell>
        <mxCell id="8OaxWqH39NRTjp0TWXGz-27" value="basketList_id" style="text;strokeColor=none;fillColor=none;spacingLeft=4;spacingRight=4;overflow=hidden;rotatable=0;points=[[0,0.5],[1,0.5]];portConstraint=eastwest;fontSize=12;whiteSpace=wrap;html=1;" vertex="1" parent="8OaxWqH39NRTjp0TWXGz-7">
          <mxGeometry y="86" width="160" height="30" as="geometry" />
        </mxCell>
        <mxCell id="8OaxWqH39NRTjp0TWXGz-11" value="" style="edgeStyle=entityRelationEdgeStyle;fontSize=12;html=1;endArrow=ERmandOne;startArrow=ERmandOne;rounded=0;exitX=1;exitY=0.5;exitDx=0;exitDy=0;entryX=0;entryY=0.5;entryDx=0;entryDy=0;" edge="1" parent="1" source="xiUfMG9ZWScVy92p255J-78" target="xiUfMG9ZWScVy92p255J-63">
          <mxGeometry width="100" height="100" relative="1" as="geometry">
            <mxPoint x="90" y="-20" as="sourcePoint" />
            <mxPoint x="190" y="-120" as="targetPoint" />
          </mxGeometry>
        </mxCell>
        <mxCell id="8OaxWqH39NRTjp0TWXGz-12" value="" style="edgeStyle=entityRelationEdgeStyle;fontSize=12;html=1;endArrow=ERmandOne;startArrow=ERmandOne;rounded=0;exitX=1;exitY=0.5;exitDx=0;exitDy=0;entryX=0;entryY=0.5;entryDx=0;entryDy=0;" edge="1" parent="1" source="xiUfMG9ZWScVy92p255J-81" target="xiUfMG9ZWScVy92p255J-63">
          <mxGeometry width="100" height="100" relative="1" as="geometry">
            <mxPoint x="10" y="50" as="sourcePoint" />
            <mxPoint x="110" y="-50" as="targetPoint" />
          </mxGeometry>
        </mxCell>
        <mxCell id="8OaxWqH39NRTjp0TWXGz-13" value="Wish_products" style="swimlane;fontStyle=0;childLayout=stackLayout;horizontal=1;startSize=26;horizontalStack=0;resizeParent=1;resizeParentMax=0;resizeLast=0;collapsible=1;marginBottom=0;align=center;fontSize=14;" vertex="1" parent="1">
          <mxGeometry x="-493" y="10" width="160" height="116" as="geometry" />
        </mxCell>
        <mxCell id="8OaxWqH39NRTjp0TWXGz-14" value="id" style="text;strokeColor=none;fillColor=none;spacingLeft=4;spacingRight=4;overflow=hidden;rotatable=0;points=[[0,0.5],[1,0.5]];portConstraint=eastwest;fontSize=12;whiteSpace=wrap;html=1;" vertex="1" parent="8OaxWqH39NRTjp0TWXGz-13">
          <mxGeometry y="26" width="160" height="30" as="geometry" />
        </mxCell>
        <mxCell id="8OaxWqH39NRTjp0TWXGz-15" value="product_id" style="text;strokeColor=none;fillColor=none;spacingLeft=4;spacingRight=4;overflow=hidden;rotatable=0;points=[[0,0.5],[1,0.5]];portConstraint=eastwest;fontSize=12;whiteSpace=wrap;html=1;" vertex="1" parent="8OaxWqH39NRTjp0TWXGz-13">
          <mxGeometry y="56" width="160" height="30" as="geometry" />
        </mxCell>
        <mxCell id="8OaxWqH39NRTjp0TWXGz-26" value="wishList_id" style="text;strokeColor=none;fillColor=none;spacingLeft=4;spacingRight=4;overflow=hidden;rotatable=0;points=[[0,0.5],[1,0.5]];portConstraint=eastwest;fontSize=12;whiteSpace=wrap;html=1;" vertex="1" parent="8OaxWqH39NRTjp0TWXGz-13">
          <mxGeometry y="86" width="160" height="30" as="geometry" />
        </mxCell>
        <mxCell id="8OaxWqH39NRTjp0TWXGz-17" value="" style="edgeStyle=entityRelationEdgeStyle;fontSize=12;html=1;endArrow=ERoneToMany;rounded=0;exitX=0;exitY=0.5;exitDx=0;exitDy=0;entryX=1;entryY=0.5;entryDx=0;entryDy=0;" edge="1" parent="1" source="xiUfMG9ZWScVy92p255J-80" target="8OaxWqH39NRTjp0TWXGz-26">
          <mxGeometry width="100" height="100" relative="1" as="geometry">
            <mxPoint x="-245.87999999999988" y="69.99999999999986" as="sourcePoint" />
            <mxPoint x="-319.9999999999998" y="83.34" as="targetPoint" />
          </mxGeometry>
        </mxCell>
        <mxCell id="8OaxWqH39NRTjp0TWXGz-18" value="" style="edgeStyle=entityRelationEdgeStyle;fontSize=12;html=1;endArrow=ERoneToMany;rounded=0;exitX=0;exitY=0.5;exitDx=0;exitDy=0;entryX=1;entryY=0.5;entryDx=0;entryDy=0;" edge="1" parent="1" source="xiUfMG9ZWScVy92p255J-77" target="8OaxWqH39NRTjp0TWXGz-27">
          <mxGeometry width="100" height="100" relative="1" as="geometry">
            <mxPoint x="-70" y="50" as="sourcePoint" />
            <mxPoint x="30" y="-50" as="targetPoint" />
          </mxGeometry>
        </mxCell>
        <mxCell id="8OaxWqH39NRTjp0TWXGz-21" value="" style="edgeStyle=entityRelationEdgeStyle;fontSize=12;html=1;endArrow=ERoneToMany;rounded=0;entryX=1;entryY=0.5;entryDx=0;entryDy=0;exitX=1;exitY=0.5;exitDx=0;exitDy=0;" edge="1" parent="1" source="xiUfMG9ZWScVy92p255J-63" target="xiUfMG9ZWScVy92p255J-145">
          <mxGeometry width="100" height="100" relative="1" as="geometry">
            <mxPoint x="220" y="-220" as="sourcePoint" />
            <mxPoint x="320" y="-320" as="targetPoint" />
          </mxGeometry>
        </mxCell>
        <mxCell id="8OaxWqH39NRTjp0TWXGz-24" value="" style="edgeStyle=entityRelationEdgeStyle;fontSize=12;html=1;endArrow=ERoneToMany;rounded=0;" edge="1" parent="1" target="xiUfMG9ZWScVy92p255J-144">
          <mxGeometry width="100" height="100" relative="1" as="geometry">
            <mxPoint x="320" y="-310" as="sourcePoint" />
            <mxPoint x="145" y="-430" as="targetPoint" />
            <Array as="points">
              <mxPoint x="237.57999999999998" y="-455" />
              <mxPoint x="64.58" y="-525" />
            </Array>
          </mxGeometry>
        </mxCell>
        <mxCell id="8OaxWqH39NRTjp0TWXGz-30" value="" style="edgeStyle=entityRelationEdgeStyle;fontSize=12;html=1;endArrow=ERmandOne;rounded=0;entryX=0;entryY=0.5;entryDx=0;entryDy=0;" edge="1" parent="1" target="xiUfMG9ZWScVy92p255J-89">
          <mxGeometry width="100" height="100" relative="1" as="geometry">
            <mxPoint x="30" y="-940" as="sourcePoint" />
            <mxPoint x="40" y="-700" as="targetPoint" />
          </mxGeometry>
        </mxCell>
        <mxCell id="8OaxWqH39NRTjp0TWXGz-31" value="" style="endArrow=none;html=1;rounded=0;" edge="1" parent="1">
          <mxGeometry relative="1" as="geometry">
            <mxPoint x="-600" y="-940" as="sourcePoint" />
            <mxPoint x="30" y="-940" as="targetPoint" />
          </mxGeometry>
        </mxCell>
        <mxCell id="8OaxWqH39NRTjp0TWXGz-32" value="" style="endArrow=none;html=1;rounded=0;" edge="1" parent="1">
          <mxGeometry relative="1" as="geometry">
            <mxPoint x="-600" y="-940" as="sourcePoint" />
            <mxPoint x="-600" as="targetPoint" />
          </mxGeometry>
        </mxCell>
        <mxCell id="8OaxWqH39NRTjp0TWXGz-35" value="" style="edgeStyle=entityRelationEdgeStyle;fontSize=12;html=1;endArrow=ERmandOne;rounded=0;entryX=0;entryY=0.5;entryDx=0;entryDy=0;" edge="1" parent="1" target="8OaxWqH39NRTjp0TWXGz-9">
          <mxGeometry width="100" height="100" relative="1" as="geometry">
            <mxPoint x="-600" as="sourcePoint" />
            <mxPoint x="-110" y="-90" as="targetPoint" />
          </mxGeometry>
        </mxCell>
        <mxCell id="8OaxWqH39NRTjp0TWXGz-36" value="" style="edgeStyle=entityRelationEdgeStyle;fontSize=12;html=1;endArrow=ERmandOne;rounded=0;entryX=0;entryY=0.5;entryDx=0;entryDy=0;" edge="1" parent="1" target="8OaxWqH39NRTjp0TWXGz-15">
          <mxGeometry width="100" height="100" relative="1" as="geometry">
            <mxPoint x="-600" as="sourcePoint" />
            <mxPoint x="-110" y="-130" as="targetPoint" />
          </mxGeometry>
        </mxCell>
        <mxCell id="8OaxWqH39NRTjp0TWXGz-37" value="" style="edgeStyle=entityRelationEdgeStyle;fontSize=12;html=1;endArrow=ERmandOne;rounded=0;entryX=0;entryY=0.5;entryDx=0;entryDy=0;" edge="1" parent="1" target="xiUfMG9ZWScVy92p255J-160">
          <mxGeometry width="100" height="100" relative="1" as="geometry">
            <mxPoint x="20" y="-540" as="sourcePoint" />
            <mxPoint x="110" y="-650" as="targetPoint" />
          </mxGeometry>
        </mxCell>
        <mxCell id="8OaxWqH39NRTjp0TWXGz-38" value="" style="endArrow=none;html=1;rounded=0;" edge="1" parent="1">
          <mxGeometry relative="1" as="geometry">
            <mxPoint x="-210" y="-540" as="sourcePoint" />
            <mxPoint x="20" y="-540" as="targetPoint" />
          </mxGeometry>
        </mxCell>
        <mxCell id="8OaxWqH39NRTjp0TWXGz-40" value="" style="edgeStyle=entityRelationEdgeStyle;fontSize=12;html=1;endArrow=ERmandOne;rounded=0;entryX=-0.002;entryY=0.14;entryDx=0;entryDy=0;entryPerimeter=0;" edge="1" parent="1" target="xiUfMG9ZWScVy92p255J-91">
          <mxGeometry width="100" height="100" relative="1" as="geometry">
            <mxPoint x="-570" y="-540" as="sourcePoint" />
            <mxPoint x="-530" y="-670" as="targetPoint" />
          </mxGeometry>
        </mxCell>
        <mxCell id="8OaxWqH39NRTjp0TWXGz-41" value="" style="endArrow=none;html=1;rounded=0;" edge="1" parent="1">
          <mxGeometry relative="1" as="geometry">
            <mxPoint x="-540" y="-540" as="sourcePoint" />
            <mxPoint x="-210" y="-540" as="targetPoint" />
          </mxGeometry>
        </mxCell>
        <mxCell id="8OaxWqH39NRTjp0TWXGz-44" value="" style="edgeStyle=entityRelationEdgeStyle;fontSize=12;html=1;endArrow=ERoneToMany;rounded=0;entryX=0;entryY=0.5;entryDx=0;entryDy=0;exitX=1;exitY=0.5;exitDx=0;exitDy=0;" edge="1" parent="1" source="xiUfMG9ZWScVy92p255J-63" target="xiUfMG9ZWScVy92p255J-113">
          <mxGeometry width="100" height="100" relative="1" as="geometry">
            <mxPoint x="220" y="-450" as="sourcePoint" />
            <mxPoint x="320" y="-550" as="targetPoint" />
          </mxGeometry>
        </mxCell>
        <mxCell id="8OaxWqH39NRTjp0TWXGz-46" value="" style="edgeStyle=entityRelationEdgeStyle;fontSize=12;html=1;endArrow=ERoneToMany;rounded=0;entryX=-0.016;entryY=0.153;entryDx=0;entryDy=0;entryPerimeter=0;" edge="1" parent="1" target="xiUfMG9ZWScVy92p255J-89">
          <mxGeometry width="100" height="100" relative="1" as="geometry">
            <mxPoint x="140" y="-920" as="sourcePoint" />
            <mxPoint x="490" y="-820" as="targetPoint" />
          </mxGeometry>
        </mxCell>
        <mxCell id="8OaxWqH39NRTjp0TWXGz-47" value="" style="endArrow=none;html=1;rounded=0;" edge="1" parent="1">
          <mxGeometry relative="1" as="geometry">
            <mxPoint x="170" y="-990" as="sourcePoint" />
            <mxPoint x="710" y="-990" as="targetPoint" />
          </mxGeometry>
        </mxCell>
        <mxCell id="8OaxWqH39NRTjp0TWXGz-48" value="" style="endArrow=none;html=1;rounded=0;" edge="1" parent="1">
          <mxGeometry relative="1" as="geometry">
            <mxPoint x="710" y="-990" as="sourcePoint" />
            <mxPoint x="710" y="-490" as="targetPoint" />
          </mxGeometry>
        </mxCell>
        <mxCell id="8OaxWqH39NRTjp0TWXGz-53" value="" style="edgeStyle=entityRelationEdgeStyle;fontSize=12;html=1;endArrow=ERmandOne;startArrow=ERmandOne;rounded=0;entryX=0;entryY=0.5;entryDx=0;entryDy=0;" edge="1" parent="1" target="xiUfMG9ZWScVy92p255J-85">
          <mxGeometry width="100" height="100" relative="1" as="geometry">
            <mxPoint x="290" y="-180" as="sourcePoint" />
            <mxPoint x="490" y="-110" as="targetPoint" />
          </mxGeometry>
        </mxCell>
        <mxCell id="8OaxWqH39NRTjp0TWXGz-54" value="" style="endArrow=none;html=1;rounded=0;" edge="1" parent="1">
          <mxGeometry relative="1" as="geometry">
            <mxPoint x="170" y="-920" as="sourcePoint" />
            <mxPoint x="170" y="-990" as="targetPoint" />
          </mxGeometry>
        </mxCell>
        <mxCell id="8OaxWqH39NRTjp0TWXGz-55" value="" style="edgeStyle=entityRelationEdgeStyle;fontSize=12;html=1;endArrow=ERoneToMany;rounded=0;" edge="1" parent="1">
          <mxGeometry width="100" height="100" relative="1" as="geometry">
            <mxPoint x="710" y="-490" as="sourcePoint" />
            <mxPoint x="960" y="-495" as="targetPoint" />
          </mxGeometry>
        </mxCell>
        <mxCell id="8OaxWqH39NRTjp0TWXGz-56" value="" style="edgeStyle=entityRelationEdgeStyle;fontSize=12;html=1;endArrow=ERmandOne;rounded=0;entryX=1.005;entryY=0.189;entryDx=0;entryDy=0;entryPerimeter=0;" edge="1" parent="1" target="xiUfMG9ZWScVy92p255J-89">
          <mxGeometry width="100" height="100" relative="1" as="geometry">
            <mxPoint x="300" y="-950" as="sourcePoint" />
            <mxPoint x="470" y="-920" as="targetPoint" />
          </mxGeometry>
        </mxCell>
        <mxCell id="8OaxWqH39NRTjp0TWXGz-57" value="" style="endArrow=none;html=1;rounded=0;" edge="1" parent="1">
          <mxGeometry relative="1" as="geometry">
            <mxPoint x="330" y="-950" as="sourcePoint" />
            <mxPoint x="670" y="-950" as="targetPoint" />
          </mxGeometry>
        </mxCell>
        <mxCell id="8OaxWqH39NRTjp0TWXGz-58" value="" style="endArrow=none;html=1;rounded=0;" edge="1" parent="1">
          <mxGeometry relative="1" as="geometry">
            <mxPoint x="670" y="-120" as="sourcePoint" />
            <mxPoint x="670" y="-950" as="targetPoint" />
          </mxGeometry>
        </mxCell>
        <mxCell id="8OaxWqH39NRTjp0TWXGz-59" value="" style="edgeStyle=entityRelationEdgeStyle;fontSize=12;html=1;endArrow=ERmandOne;rounded=0;entryX=1;entryY=0.5;entryDx=0;entryDy=0;" edge="1" parent="1" target="xiUfMG9ZWScVy92p255J-86">
          <mxGeometry width="100" height="100" relative="1" as="geometry">
            <mxPoint x="670" y="-120" as="sourcePoint" />
            <mxPoint x="470" y="-360" as="targetPoint" />
          </mxGeometry>
        </mxCell>
        <mxCell id="8OaxWqH39NRTjp0TWXGz-62" value="" style="edgeStyle=entityRelationEdgeStyle;fontSize=12;html=1;endArrow=ERoneToMany;rounded=0;entryX=1;entryY=0.25;entryDx=0;entryDy=0;" edge="1" parent="1" target="xiUfMG9ZWScVy92p255J-91">
          <mxGeometry width="100" height="100" relative="1" as="geometry">
            <mxPoint x="-320" y="-1040" as="sourcePoint" />
            <mxPoint x="150" y="-710" as="targetPoint" />
          </mxGeometry>
        </mxCell>
        <mxCell id="8OaxWqH39NRTjp0TWXGz-63" value="" style="endArrow=none;html=1;rounded=0;" edge="1" parent="1">
          <mxGeometry relative="1" as="geometry">
            <mxPoint x="-300" y="-1040" as="sourcePoint" />
            <mxPoint x="800" y="-1040" as="targetPoint" />
          </mxGeometry>
        </mxCell>
        <mxCell id="8OaxWqH39NRTjp0TWXGz-64" value="" style="endArrow=none;html=1;rounded=0;" edge="1" parent="1">
          <mxGeometry relative="1" as="geometry">
            <mxPoint x="800" y="-400" as="sourcePoint" />
            <mxPoint x="800" y="-1040" as="targetPoint" />
          </mxGeometry>
        </mxCell>
        <mxCell id="8OaxWqH39NRTjp0TWXGz-65" value="" style="edgeStyle=entityRelationEdgeStyle;fontSize=12;html=1;endArrow=ERoneToMany;rounded=0;entryX=0;entryY=0.5;entryDx=0;entryDy=0;" edge="1" parent="1" target="8OaxWqH39NRTjp0TWXGz-49">
          <mxGeometry width="100" height="100" relative="1" as="geometry">
            <mxPoint x="800" y="-400" as="sourcePoint" />
            <mxPoint x="700" y="-540" as="targetPoint" />
          </mxGeometry>
        </mxCell>
        <mxCell id="8OaxWqH39NRTjp0TWXGz-68" value="" style="endArrow=none;html=1;rounded=0;" edge="1" parent="1">
          <mxGeometry relative="1" as="geometry">
            <mxPoint x="320" y="-570" as="sourcePoint" />
            <mxPoint x="320" y="-310" as="targetPoint" />
          </mxGeometry>
        </mxCell>
        <mxCell id="8OaxWqH39NRTjp0TWXGz-69" value="" style="endArrow=none;html=1;rounded=0;exitX=1;exitY=0.5;exitDx=0;exitDy=0;" edge="1" parent="1" source="8OaxWqH39NRTjp0TWXGz-43">
          <mxGeometry relative="1" as="geometry">
            <mxPoint x="630" y="-410" as="sourcePoint" />
            <mxPoint x="320" y="-565" as="targetPoint" />
          </mxGeometry>
        </mxCell>
        <mxCell id="8OaxWqH39NRTjp0TWXGz-70" value="" style="edgeStyle=entityRelationEdgeStyle;fontSize=12;html=1;endArrow=ERoneToMany;rounded=0;entryX=1;entryY=0.5;entryDx=0;entryDy=0;" edge="1" parent="1" target="8OaxWqH39NRTjp0TWXGz-2">
          <mxGeometry width="100" height="100" relative="1" as="geometry">
            <mxPoint x="-230" y="-400" as="sourcePoint" />
            <mxPoint x="280" y="-480" as="targetPoint" />
          </mxGeometry>
        </mxCell>
        <mxCell id="8OaxWqH39NRTjp0TWXGz-71" value="" style="endArrow=none;html=1;rounded=0;" edge="1" parent="1">
          <mxGeometry relative="1" as="geometry">
            <mxPoint x="-210" y="-400" as="sourcePoint" />
            <mxPoint x="360" y="-400" as="targetPoint" />
          </mxGeometry>
        </mxCell>
        <mxCell id="8OaxWqH39NRTjp0TWXGz-73" value="" style="edgeStyle=entityRelationEdgeStyle;fontSize=12;html=1;endArrow=ERmandOne;rounded=0;entryX=1;entryY=0.5;entryDx=0;entryDy=0;" edge="1" parent="1" target="xiUfMG9ZWScVy92p255J-147">
          <mxGeometry width="100" height="100" relative="1" as="geometry">
            <mxPoint x="360" y="-400" as="sourcePoint" />
            <mxPoint x="280" y="-480" as="targetPoint" />
          </mxGeometry>
        </mxCell>
      </root>
    </mxGraphModel>
  </diagram>
</mxfile>
